<svg id="visual" viewBox="0 0 540 960" width="540" height="960" xmlns="http://www.w3.org/2000/svg" xmlns:xlink="http://www.w3.org/1999/xlink" version="1.1"><rect x="0" y="0" width="540" height="960" fill="#4FACF7"></rect><path d="M0 213L45 206.8C90 200.7 180 188.3 270 176.8C360 165.3 450 154.7 495 149.3L540 144L540 961L495 961C450 961 360 961 270 961C180 961 90 961 45 961L0 961Z" fill="#ffffff"></path><path d="M0 333L45 330.5C90 328 180 323 270 327C360 331 450 344 495 350.5L540 357L540 961L495 961C450 961 360 961 270 961C180 961 90 961 45 961L0 961Z" fill="#edf4fe"></path><path d="M0 423L45 413.8C90 404.7 180 386.3 270 380C360 373.7 450 379.3 495 382.2L540 385L540 961L495 961C450 961 360 961 270 961C180 961 90 961 45 961L0 961Z" fill="#dbe9fe"></path><path d="M0 412L45 410C90 408 180 404 270 415.3C360 426.7 450 453.3 495 466.7L540 480L540 961L495 961C450 961 360 961 270 961C180 961 90 961 45 961L0 961Z" fill="#c8dffd"></path><path d="M0 526L45 521.3C90 516.7 180 507.3 270 509.7C360 512 450 526 495 533L540 540L540 961L495 961C450 961 360 961 270 961C180 961 90 961 45 961L0 961Z" fill="#b4d4fc"></path><path d="M0 597L45 608C90 619 180 641 270 648.3C360 655.7 450 648.3 495 644.7L540 641L540 961L495 961C450 961 360 961 270 961C180 961 90 961 45 961L0 961Z" fill="#9fcafb"></path><path d="M0 657L45 665.5C90 674 180 691 270 701.5C360 712 450 716 495 718L540 720L540 961L495 961C450 961 360 961 270 961C180 961 90 961 45 961L0 961Z" fill="#89c0fa"></path><path d="M0 815L45 804.3C90 793.7 180 772.3 270 772.3C360 772.3 450 793.7 495 804.3L540 815L540 961L495 961C450 961 360 961 270 961C180 961 90 961 45 961L0 961Z" fill="#6fb6f8"></path><path d="M0 867L45 860.5C90 854 180 841 270 845.3C360 849.7 450 871.3 495 882.2L540 893L540 961L495 961C450 961 360 961 270 961C180 961 90 961 45 961L0 961Z" fill="#4facf7"></path></svg>